# xmcd
#
# Track frame offsets: 
#        150
#        13775
#        26560
#        37620
#        48075
#        69292
#        86445
#        98925
#        113925
#        128815
#        139690
#        153692
#        164492
#
# Disc length: 2451 seconds
#
# Revision: 2
# Processed by: cddbd v1.5.1PL0 Copyright (c) Steve Scherf et al.
# Submitted via: ExactAudioCopy v0.95a5
#
DISCID=9f09910d
DTITLE=Robbie Fulks - South Mouth
DYEAR=1997
DGENRE=Country
TTITLE0=Goodbye, Good-Lookin'
TTITLE1=I Told Her Lies
TTITLE2=Heart, I Wish You Were Here
TTITLE3=I Push Right Over
TTITLE4=Cold Statesville Ground
TTITLE5=Forgotten But Not Gone
TTITLE6=Busy Not Crying
TTITLE7=I Was Just Leaving
TTITLE8=What The Lord Hat Wrought (Any Fool Can Knock Down)
TTITLE9=Dirty-Mouthed Flo
TTITLE10=You Wouldn't Do That To Me
TTITLE11=Fuck This Town
TTITLE12=South Richmond Girl
EXTD=
EXTT0=
EXTT1=
EXTT2=
EXTT3=
EXTT4=
EXTT5=
EXTT6=
EXTT7=
EXTT8=
EXTT9=
EXTT10=
EXTT11=
EXTT12=
PLAYORDER=
